<svg width="16" height="15" viewBox="0 0 16 15" fill="none" xmlns="http://www.w3.org/2000/svg">
<path fill-rule="evenodd" clip-rule="evenodd" d="M13.3207 0.201554C13.7118 -0.189476 14.1126 0.0432505 14.5029 0.433573C14.8932 0.823896 15.126 1.22474 14.7349 1.61577L8.91719 7.43353L14.7667 13.283C15.1577 13.6741 15.0355 14.1854 14.6452 14.5757C14.2548 14.966 13.7435 15.0883 13.3525 14.6972L7.50297 8.84774L1.65347 14.6972C1.26244 15.0883 0.751115 14.966 0.360792 14.5757C-0.0295306 14.1854 -0.151772 13.6741 0.239258 13.283L6.08876 7.43353L0.271001 1.61577C-0.120029 1.22474 0.112697 0.823896 0.50302 0.433573C0.893343 0.0432505 1.29418 -0.189476 1.68521 0.201554L7.50297 6.01931L13.3207 0.201554Z" fill="#33485D"/>
</svg>
