<svg width="21" height="21" viewBox="0 0 21 21" fill="none" xmlns="http://www.w3.org/2000/svg">
<path fill-rule="evenodd" clip-rule="evenodd" d="M20.1509 13.3947L17.3799 6.32756C17.8899 5.99414 18.2324 5.38447 18.2324 4.68891C18.2324 3.63667 17.4492 2.78065 16.4865 2.78065C16.1227 2.78065 15.8277 3.10311 15.8277 3.50072C15.8277 3.89833 16.1227 4.22079 16.4865 4.22079C16.7227 4.22079 16.9147 4.43086 16.9147 4.68884C16.9147 4.94689 16.7226 5.15689 16.4865 5.15689H11.2679V2.3126C11.2679 1.91499 10.973 1.59253 10.6091 1.59253C10.2453 1.59253 9.95034 1.91499 9.95034 2.3126V5.15703H4.73176C4.4956 5.15703 4.30354 4.94697 4.30354 4.68899C4.30354 4.43093 4.49566 4.22094 4.73176 4.22094C5.09553 4.22094 5.39054 3.89848 5.39054 3.50087C5.39054 3.10326 5.09553 2.7808 4.73176 2.7808C3.76906 2.7808 2.9859 3.63681 2.9859 4.68906C2.9859 5.38462 3.32832 5.99421 3.83836 6.32771L1.06738 13.3947C0.801589 13.4876 0.609131 13.7594 0.609131 14.0805C0.609131 16.5685 2.45849 18.5925 4.73176 18.5925C7.00496 18.5925 8.85438 16.5685 8.85438 14.0805C8.85438 13.7594 8.66193 13.4875 8.39613 13.3947L5.73088 6.59718H9.95034L10.6091 7.44581L11.2679 6.59718H15.4874L12.8221 13.3947C12.5564 13.4876 12.3639 13.7594 12.3639 14.0805C12.3639 16.5685 14.2133 18.5925 16.4865 18.5925C18.7598 18.5925 20.6091 16.5685 20.6091 14.0805C20.6091 13.7594 20.4167 13.4876 20.1509 13.3947ZM6.9492 13.3604L4.73176 7.70514L2.51432 13.3604H6.9492ZM2.00462 14.8007C2.30125 16.1482 3.41149 17.1524 4.73176 17.1524C6.05196 17.1524 7.16219 16.1482 7.4589 14.8007H2.00462ZM14.2691 13.3604H18.7039L16.4866 7.70514L14.2691 13.3604ZM13.7594 14.8007C14.056 16.1482 15.1663 17.1524 16.4865 17.1524C17.8068 17.1524 18.917 16.1482 19.2136 14.8007H13.7594Z" fill="black"/>
</svg>
