<svg width="21" height="21" viewBox="0 0 21 21" xmlns="http://www.w3.org/2000/svg">
<path fill-rule="evenodd" clip-rule="evenodd" d="M19.9617 9.5617C20.5147 9.5617 20.6336 10.0097 20.6336 10.5617C20.6336 11.1137 20.5147 11.5617 19.9617 11.5617L11.7342 11.5617L11.7342 19.8341C11.7342 20.3871 11.2862 20.6623 10.7342 20.6623C10.1822 20.6623 9.73416 20.3871 9.73416 19.8341L9.73416 11.5617L1.46172 11.5617C0.908719 11.5617 0.633594 11.1137 0.633595 10.5617C0.633594 10.0097 0.908719 9.5617 1.46172 9.5617L9.73416 9.5617L9.73416 1.33415C9.73416 0.781147 10.1822 0.662272 10.7342 0.662272C11.2862 0.662272 11.7342 0.781147 11.7342 1.33415L11.7342 9.5617L19.9617 9.5617Z"/>
</svg>
