<svg width="62" height="16" viewBox="0 0 62 16" fill="none" xmlns="http://www.w3.org/2000/svg">
<g clip-path="url(#clip0)">
<path d="M13.0444 6.62324C13.003 6.49595 12.893 6.40318 12.7606 6.38397L9.04054 5.84338L7.37684 2.47245C7.31763 2.35245 7.19541 2.27649 7.0616 2.27649C6.92778 2.27649 6.80557 2.35245 6.74635 2.47245L5.08257 5.84338L1.36259 6.38397C1.23019 6.40318 1.12015 6.49595 1.07881 6.62321C1.03744 6.7505 1.07194 6.89021 1.16778 6.98361L3.85952 9.60752L3.22417 13.3126C3.20153 13.4445 3.25577 13.5778 3.36403 13.6564C3.42527 13.7009 3.49781 13.7236 3.5707 13.7236C3.62666 13.7236 3.68282 13.7102 3.73424 13.6832L7.06158 11.9339L10.3888 13.6831C10.5073 13.7454 10.6508 13.7351 10.759 13.6564C10.8673 13.5778 10.9215 13.4444 10.8989 13.3125L10.2634 9.60752L12.9554 6.98359C13.0512 6.89021 13.0857 6.7505 13.0444 6.62324Z" fill="#F1F1F1"/>
</g>
<g clip-path="url(#clip1)">
<path d="M25.0444 6.62324C25.003 6.49595 24.893 6.40318 24.7606 6.38397L21.0405 5.84338L19.3768 2.47245C19.3176 2.35245 19.1954 2.27649 19.0616 2.27649C18.9278 2.27649 18.8056 2.35245 18.7463 2.47245L17.0826 5.84338L13.3626 6.38397C13.2302 6.40318 13.1202 6.49595 13.0788 6.62321C13.0374 6.7505 13.0719 6.89021 13.1678 6.98361L15.8595 9.60752L15.2242 13.3126C15.2015 13.4445 15.2558 13.5778 15.364 13.6564C15.4253 13.7009 15.4978 13.7236 15.5707 13.7236C15.6267 13.7236 15.6828 13.7102 15.7342 13.6832L19.0616 11.9339L22.3888 13.6831C22.5073 13.7454 22.6508 13.7351 22.759 13.6564C22.8673 13.5778 22.9215 13.4444 22.8989 13.3125L22.2634 9.60752L24.9554 6.98359C25.0512 6.89021 25.0857 6.7505 25.0444 6.62324Z" fill="#F1F1F1"/>
</g>
<g clip-path="url(#clip2)">
<path d="M37.0444 6.62324C37.003 6.49595 36.893 6.40318 36.7606 6.38397L33.0405 5.84338L31.3768 2.47245C31.3176 2.35245 31.1954 2.27649 31.0616 2.27649C30.9278 2.27649 30.8056 2.35245 30.7463 2.47245L29.0826 5.84338L25.3626 6.38397C25.2302 6.40318 25.1202 6.49595 25.0788 6.62321C25.0374 6.7505 25.0719 6.89021 25.1678 6.98361L27.8595 9.60752L27.2242 13.3126C27.2015 13.4445 27.2558 13.5778 27.364 13.6564C27.4253 13.7009 27.4978 13.7236 27.5707 13.7236C27.6267 13.7236 27.6828 13.7102 27.7342 13.6832L31.0616 11.9339L34.3888 13.6831C34.5073 13.7454 34.6508 13.7351 34.759 13.6564C34.8673 13.5778 34.9215 13.4444 34.8989 13.3125L34.2634 9.60752L36.9554 6.98359C37.0512 6.89021 37.0857 6.7505 37.0444 6.62324Z" fill="#F1F1F1"/>
</g>
<g clip-path="url(#clip3)">
<path d="M49.0444 6.62324C49.003 6.49595 48.893 6.40318 48.7606 6.38397L45.0405 5.84338L43.3768 2.47245C43.3176 2.35245 43.1954 2.27649 43.0616 2.27649C42.9278 2.27649 42.8056 2.35245 42.7463 2.47245L41.0826 5.84338L37.3626 6.38397C37.2302 6.40318 37.1202 6.49595 37.0788 6.62321C37.0374 6.7505 37.0719 6.89021 37.1678 6.98361L39.8595 9.60752L39.2242 13.3126C39.2015 13.4445 39.2558 13.5778 39.364 13.6564C39.4253 13.7009 39.4978 13.7236 39.5707 13.7236C39.6267 13.7236 39.6828 13.7102 39.7342 13.6832L43.0616 11.9339L46.3888 13.6831C46.5073 13.7454 46.6508 13.7351 46.759 13.6564C46.8673 13.5778 46.9215 13.4444 46.8989 13.3125L46.2634 9.60752L48.9554 6.98359C49.0512 6.89021 49.0857 6.7505 49.0444 6.62324Z" fill="#F1F1F1"/>
</g>
<g clip-path="url(#clip4)">
<path d="M61.0444 6.62324C61.003 6.49595 60.893 6.40318 60.7606 6.38397L57.0405 5.84338L55.3768 2.47245C55.3176 2.35245 55.1954 2.27649 55.0616 2.27649C54.9278 2.27649 54.8056 2.35245 54.7463 2.47245L53.0826 5.84338L49.3626 6.38397C49.2302 6.40318 49.1202 6.49595 49.0788 6.62321C49.0374 6.7505 49.0719 6.89021 49.1678 6.98361L51.8595 9.60752L51.2242 13.3126C51.2015 13.4445 51.2558 13.5778 51.364 13.6564C51.4253 13.7009 51.4978 13.7236 51.5707 13.7236C51.6267 13.7236 51.6828 13.7102 51.7342 13.6832L55.0616 11.9339L58.3888 13.6831C58.5073 13.7454 58.6508 13.7351 58.759 13.6564C58.8673 13.5778 58.9215 13.4444 58.8989 13.3125L58.2634 9.60752L60.9554 6.98359C61.0512 6.89021 61.0857 6.7505 61.0444 6.62324Z" fill="#D8DADB"/>
</g>
<g clip-path="url(#clip5)">
<g clip-path="url(#clip6)">
<path d="M13.0444 6.62324C13.003 6.49595 12.893 6.40318 12.7606 6.38397L9.04054 5.84338L7.37684 2.47245C7.31763 2.35245 7.19541 2.27649 7.0616 2.27649C6.92778 2.27649 6.80557 2.35245 6.74635 2.47245L5.08257 5.84338L1.36259 6.38397C1.23019 6.40318 1.12015 6.49595 1.07881 6.62321C1.03744 6.7505 1.07194 6.89021 1.16778 6.98361L3.85952 9.60752L3.22417 13.3126C3.20153 13.4445 3.25577 13.5778 3.36403 13.6564C3.42527 13.7009 3.49781 13.7236 3.5707 13.7236C3.62666 13.7236 3.68282 13.7102 3.73424 13.6832L7.06158 11.9339L10.3888 13.6831C10.5073 13.7454 10.6508 13.7351 10.759 13.6564C10.8673 13.5778 10.9215 13.4444 10.8989 13.3125L10.2634 9.60752L12.9554 6.98359C13.0512 6.89021 13.0857 6.7505 13.0444 6.62324Z" fill="#FFD600"/>
</g>
<g clip-path="url(#clip7)">
<path d="M25.0444 6.62324C25.003 6.49595 24.893 6.40318 24.7606 6.38397L21.0405 5.84338L19.3768 2.47245C19.3176 2.35245 19.1954 2.27649 19.0616 2.27649C18.9278 2.27649 18.8056 2.35245 18.7463 2.47245L17.0826 5.84338L13.3626 6.38397C13.2302 6.40318 13.1202 6.49595 13.0788 6.62321C13.0374 6.7505 13.0719 6.89021 13.1678 6.98361L15.8595 9.60752L15.2242 13.3126C15.2015 13.4445 15.2558 13.5778 15.364 13.6564C15.4253 13.7009 15.4978 13.7236 15.5707 13.7236C15.6267 13.7236 15.6828 13.7102 15.7342 13.6832L19.0616 11.9339L22.3888 13.6831C22.5073 13.7454 22.6508 13.7351 22.759 13.6564C22.8673 13.5778 22.9215 13.4444 22.8989 13.3125L22.2634 9.60752L24.9554 6.98359C25.0512 6.89021 25.0857 6.7505 25.0444 6.62324Z" fill="#FFD600"/>
</g>
<g clip-path="url(#clip8)">
<path d="M37.0444 6.62324C37.003 6.49595 36.893 6.40318 36.7606 6.38397L33.0405 5.84338L31.3768 2.47245C31.3176 2.35245 31.1954 2.27649 31.0616 2.27649C30.9278 2.27649 30.8056 2.35245 30.7463 2.47245L29.0826 5.84338L25.3626 6.38397C25.2302 6.40318 25.1202 6.49595 25.0788 6.62321C25.0374 6.7505 25.0719 6.89021 25.1678 6.98361L27.8595 9.60752L27.2242 13.3126C27.2015 13.4445 27.2558 13.5778 27.364 13.6564C27.4253 13.7009 27.4978 13.7236 27.5707 13.7236C27.6267 13.7236 27.6828 13.7102 27.7342 13.6832L31.0616 11.9339L34.3888 13.6831C34.5073 13.7454 34.6508 13.7351 34.759 13.6564C34.8673 13.5778 34.9215 13.4444 34.8989 13.3125L34.2634 9.60752L36.9554 6.98359C37.0512 6.89021 37.0857 6.7505 37.0444 6.62324Z" fill="#FFD600"/>
</g>
<g clip-path="url(#clip9)">
<path d="M49.0444 6.62324C49.003 6.49595 48.893 6.40318 48.7606 6.38397L45.0405 5.84338L43.3768 2.47245C43.3176 2.35245 43.1954 2.27649 43.0616 2.27649C42.9278 2.27649 42.8056 2.35245 42.7463 2.47245L41.0826 5.84338L37.3626 6.38397C37.2302 6.40318 37.1202 6.49595 37.0788 6.62321C37.0374 6.7505 37.0719 6.89021 37.1678 6.98361L39.8595 9.60752L39.2242 13.3126C39.2015 13.4445 39.2558 13.5778 39.364 13.6564C39.4253 13.7009 39.4978 13.7236 39.5707 13.7236C39.6267 13.7236 39.6828 13.7102 39.7342 13.6832L43.0616 11.9339L46.3888 13.6831C46.5073 13.7454 46.6508 13.7351 46.759 13.6564C46.8673 13.5778 46.9215 13.4444 46.8989 13.3125L46.2634 9.60752L48.9554 6.98359C49.0512 6.89021 49.0857 6.7505 49.0444 6.62324Z" fill="#FFD600"/>
</g>
</g>
<defs>
<clipPath id="clip0">
<rect width="12" height="12" fill="white" transform="translate(1.06152 2)"/>
</clipPath>
<clipPath id="clip1">
<rect width="12" height="12" fill="white" transform="translate(13.0615 2)"/>
</clipPath>
<clipPath id="clip2">
<rect width="12" height="12" fill="white" transform="translate(25.0615 2)"/>
</clipPath>
<clipPath id="clip3">
<rect width="12" height="12" fill="white" transform="translate(37.0615 2)"/>
</clipPath>
<clipPath id="clip4">
<rect width="12" height="12" fill="white" transform="translate(49.0615 2)"/>
</clipPath>
<clipPath id="clip5">
<rect width="48" height="12" fill="white" transform="translate(1.06152 2)"/>
</clipPath>
<clipPath id="clip6">
<rect width="12" height="12" fill="white" transform="translate(1.06152 2)"/>
</clipPath>
<clipPath id="clip7">
<rect width="12" height="12" fill="white" transform="translate(13.0615 2)"/>
</clipPath>
<clipPath id="clip8">
<rect width="12" height="12" fill="white" transform="translate(25.0615 2)"/>
</clipPath>
<clipPath id="clip9">
<rect width="12" height="12" fill="white" transform="translate(37.0615 2)"/>
</clipPath>
</defs>
</svg>
