<svg width="21" height="20" viewBox="0 0 21 20" fill="none" xmlns="http://www.w3.org/2000/svg">
<g clip-path="url(#clip0)">
<path d="M19.1917 2.75532C18.2467 1.85134 16.941 1.39954 15.2742 1.39954C14.8129 1.39954 14.3421 1.47789 13.8623 1.63451C13.3823 1.79125 12.9358 2.00272 12.5232 2.26875C12.1101 2.53471 11.7551 2.78447 11.4573 3.01764C11.1598 3.2509 10.8769 3.49878 10.6091 3.7611C10.3412 3.49878 10.0585 3.2509 9.76093 3.01764C9.46322 2.78447 9.10803 2.53486 8.695 2.26875C8.28204 2.0026 7.83558 1.79129 7.3557 1.63451C6.87586 1.47793 6.40516 1.39954 5.94389 1.39954C4.27716 1.39954 2.97144 1.85145 2.02653 2.75532C1.08162 3.65912 0.609131 4.91274 0.609131 6.51629C0.609131 7.00466 0.696695 7.50778 0.871471 8.02503C1.04625 8.54254 1.24542 8.98358 1.46859 9.34796C1.69172 9.71229 1.94475 10.0676 2.2275 10.4139C2.51025 10.7601 2.71688 10.9987 2.84694 11.1299C2.97711 11.2611 3.07945 11.3559 3.15384 11.4143L10.118 17.9962C10.252 18.1274 10.4157 18.1932 10.6091 18.1932C10.8025 18.1932 10.9663 18.1274 11.1002 17.9962L18.0533 11.4359C19.7572 9.76706 20.6091 8.12704 20.6091 6.51614C20.6091 4.91247 20.1367 3.65896 19.1917 2.75532ZM17.0823 10.4084L10.6091 16.5201L4.1249 10.3973C2.7335 9.03463 2.03791 7.74069 2.03791 6.51614C2.03791 5.92582 2.11789 5.40459 2.27777 4.95279C2.43777 4.50091 2.64237 4.14182 2.89162 3.87579C3.1409 3.60968 3.44405 3.39301 3.80119 3.22524C4.15852 3.05762 4.50819 2.94461 4.85039 2.88633C5.1926 2.82812 5.55712 2.79898 5.94408 2.79898C6.33093 2.79898 6.74768 2.89181 7.1941 3.07773C7.64044 3.26357 8.05152 3.49682 8.42722 3.77741C8.80301 4.05819 9.1248 4.32055 9.39277 4.56464C9.66059 4.80896 9.88372 5.03294 10.0623 5.23705C10.1962 5.39747 10.3786 5.47766 10.6092 5.47766C10.8398 5.47766 11.022 5.39747 11.1561 5.23705C11.3346 5.03294 11.5579 4.80884 11.8257 4.56464C12.0936 4.32055 12.4154 4.0583 12.791 3.77741C13.1668 3.49682 13.5779 3.26357 14.0245 3.07773C14.4707 2.89184 14.8876 2.79898 15.2745 2.79898C15.6614 2.79898 16.0258 2.82812 16.3681 2.88633C16.7105 2.94458 17.0601 3.05762 17.4173 3.22524C17.7745 3.39297 18.0777 3.60979 18.3269 3.87579C18.5761 4.14182 18.7808 4.50091 18.9408 4.95279C19.1005 5.40459 19.1805 5.92582 19.1805 6.51614C19.1804 7.74069 18.4812 9.03823 17.0823 10.4084Z" fill="black"/>
</g>
<defs>
<clipPath id="clip0">
<rect width="20" height="19.5926" fill="white" transform="translate(0.609131)"/>
</clipPath>
</defs>
</svg>
